<svg xmlns="http://www.w3.org/2000/svg" xmlns:xlink="http://www.w3.org/1999/xlink" viewBox="0 0 800 800"><defs><style>.cls-1{isolation:isolate;}.cls-2{fill:url(#linear-gradient);}.cls-3{fill:url(#linear-gradient-2);}.cls-11,.cls-31,.cls-39,.cls-4,.cls-42,.cls-5,.cls-54,.cls-55,.cls-56,.cls-6,.cls-7,.cls-8,.cls-9{opacity:0.8;}.cls-11,.cls-15,.cls-17,.cls-19,.cls-22,.cls-23,.cls-26,.cls-31,.cls-39,.cls-4,.cls-42,.cls-5,.cls-54,.cls-55,.cls-56,.cls-6,.cls-7,.cls-8,.cls-9{mix-blend-mode:multiply;}.cls-4{fill:url(#linear-gradient-3);}.cls-5{fill:url(#linear-gradient-4);}.cls-6{fill:url(#linear-gradient-5);}.cls-7{fill:url(#linear-gradient-6);}.cls-8{fill:url(#linear-gradient-7);}.cls-9{fill:url(#linear-gradient-8);}.cls-10{fill:#cbdfef;}.cls-11{fill:url(#linear-gradient-9);}.cls-12,.cls-20,.cls-30{fill:#fff;}.cls-13{fill:url(#linear-gradient-10);}.cls-14{fill:#809297;}.cls-15{fill:url(#linear-gradient-11);}.cls-16{fill:#8a9ea2;}.cls-17{fill:url(#linear-gradient-12);}.cls-18{fill:#92a7ac;}.cls-19{fill:url(#linear-gradient-13);}.cls-20{opacity:0.1;}.cls-21{fill:#fdc870;}.cls-22{fill:url(#linear-gradient-14);}.cls-23{fill:url(#linear-gradient-15);}.cls-24,.cls-25{mix-blend-mode:overlay;}.cls-24{fill:url(#linear-gradient-16);}.cls-25{fill:url(#linear-gradient-17);}.cls-26{fill:url(#linear-gradient-18);}.cls-27,.cls-28,.cls-36,.cls-37,.cls-45,.cls-46,.cls-59{opacity:0.7;}.cls-27{fill:url(#linear-gradient-19);}.cls-28{fill:url(#linear-gradient-20);}.cls-29{fill:url(#linear-gradient-21);}.cls-30{mix-blend-mode:soft-light;}.cls-31{fill:url(#linear-gradient-22);}.cls-32{fill:url(#linear-gradient-23);}.cls-33{fill:#ffb300;}.cls-34{fill:#ffa000;}.cls-35{fill:#ffca28;}.cls-36{fill:url(#linear-gradient-24);}.cls-37{fill:url(#linear-gradient-25);}.cls-38{fill:url(#linear-gradient-26);}.cls-39{fill:url(#linear-gradient-27);}.cls-40{fill:url(#linear-gradient-28);}.cls-41{fill:#d32f2f;}.cls-42{fill:url(#linear-gradient-29);}.cls-43{fill:#ef5350;}.cls-44,.cls-53,.cls-61,.cls-63{fill:none;stroke:#fff;}.cls-44,.cls-53{stroke-miterlimit:10;}.cls-44,.cls-61{stroke-width:1.04px;}.cls-45{fill:url(#linear-gradient-30);}.cls-46{fill:url(#linear-gradient-31);}.cls-47{fill:url(#linear-gradient-32);}.cls-48{fill:#25284c;}.cls-49{fill:#111638;}.cls-50{fill:#f5f5f5;}.cls-51{fill:#7b92b9;}.cls-52{fill:#6a7ea2;}.cls-53{stroke-width:0.75px;}.cls-54{fill:url(#linear-gradient-33);}.cls-55{fill:url(#linear-gradient-34);}.cls-56{fill:url(#linear-gradient-35);}.cls-57{fill:url(#linear-gradient-36);}.cls-58{fill:url(#linear-gradient-37);}.cls-59{fill:url(#linear-gradient-38);}.cls-60{fill:url(#linear-gradient-39);}.cls-61,.cls-63{stroke-linecap:round;stroke-linejoin:round;}.cls-62{fill:#ffee58;}.cls-63{stroke-width:0.52px;}.cls-64{fill:url(#linear-gradient-40);}</style><linearGradient id="linear-gradient" x1="398.46" y1="786.65" x2="398.46" y2="65.26" gradientUnits="userSpaceOnUse"><stop offset="0" stop-color="#ac24b9"/><stop offset="1" stop-color="#2e2142"/></linearGradient><linearGradient id="linear-gradient-2" x1="41.95" y1="779.51" x2="2.59" y2="531.49" xlink:href="#linear-gradient"/><linearGradient id="linear-gradient-3" x1="190.27" y1="784.73" x2="197.78" y2="681.65" gradientUnits="userSpaceOnUse"><stop offset="0" stop-color="#fff" stop-opacity="0"/><stop offset="1" stop-color="#662d8d"/></linearGradient><linearGradient id="linear-gradient-4" x1="432.07" y1="787.19" x2="439.58" y2="684.11" xlink:href="#linear-gradient-3"/><linearGradient id="linear-gradient-5" x1="450.85" y1="675.6" x2="114.99" y2="671.5" xlink:href="#linear-gradient-3"/><linearGradient id="linear-gradient-6" x1="353.6" y1="339.19" x2="172.02" y2="542.61" xlink:href="#linear-gradient-3"/><linearGradient id="linear-gradient-7" x1="909.79" y1="644.57" x2="524.02" y2="644.57" xlink:href="#linear-gradient-3"/><linearGradient id="linear-gradient-8" x1="853.35" y1="528.94" x2="442.26" y2="528.94" xlink:href="#linear-gradient-3"/><linearGradient id="linear-gradient-9" x1="379.08" y1="560.76" x2="563.92" y2="560.76" xlink:href="#linear-gradient-3"/><linearGradient id="linear-gradient-10" x1="397.42" y1="342.45" x2="397.42" y2="585.85" gradientUnits="userSpaceOnUse"><stop offset="0" stop-color="#00d4c8"/><stop offset="1" stop-color="#00d2c7" stop-opacity="0"/></linearGradient><linearGradient id="linear-gradient-11" x1="365.64" y1="434.23" x2="427.41" y2="434.23" gradientUnits="userSpaceOnUse"><stop offset="0" stop-color="#fff" stop-opacity="0"/><stop offset="1" stop-color="#92a7ac"/></linearGradient><linearGradient id="linear-gradient-12" x1="380.2" y1="405.93" x2="438.6" y2="405.93" xlink:href="#linear-gradient-11"/><linearGradient id="linear-gradient-13" x1="370.96" y1="388.43" x2="441.24" y2="388.43" gradientTransform="translate(772.89 -22.47) rotate(88.07)" xlink:href="#linear-gradient-11"/><linearGradient id="linear-gradient-14" x1="376.18" y1="258.33" x2="455.71" y2="352.44" gradientUnits="userSpaceOnUse"><stop offset="0" stop-color="#fff" stop-opacity="0"/><stop offset="1" stop-color="#fdc870"/></linearGradient><linearGradient id="linear-gradient-15" x1="462.08" y1="273.55" x2="462.08" y2="319.44" gradientTransform="translate(-73.55 -14.35) rotate(-1.56)" xlink:href="#linear-gradient-14"/><linearGradient id="linear-gradient-16" x1="492.52" y1="310.93" x2="422.25" y2="192.87" gradientTransform="translate(-66.64 -27.05)" gradientUnits="userSpaceOnUse"><stop offset="0" stop-color="#fff" stop-opacity="0"/><stop offset="1" stop-color="#fff"/></linearGradient><linearGradient id="linear-gradient-17" x1="348.9" y1="317.28" x2="272.96" y2="280.51" gradientTransform="matrix(1, 0, 0, 1, 0, 0)" xlink:href="#linear-gradient-16"/><linearGradient id="linear-gradient-18" x1="386.31" y1="397.11" x2="451.02" y2="362.26" xlink:href="#linear-gradient-14"/><linearGradient id="linear-gradient-19" x1="197.95" y1="336.56" x2="415.93" y2="336.56" xlink:href="#linear-gradient-10"/><linearGradient id="linear-gradient-20" x1="570.67" y1="336.56" x2="417.66" y2="336.56" xlink:href="#linear-gradient-10"/><linearGradient id="linear-gradient-21" x1="397.42" y1="31.62" x2="397.42" y2="275.02" xlink:href="#linear-gradient-10"/><linearGradient id="linear-gradient-22" x1="615.18" y1="660.72" x2="740.16" y2="660.72" xlink:href="#linear-gradient-3"/><linearGradient id="linear-gradient-23" x1="627.58" y1="513.11" x2="627.58" y2="677.68" xlink:href="#linear-gradient-10"/><linearGradient id="linear-gradient-24" x1="492.72" y1="526.1" x2="640.1" y2="526.1" xlink:href="#linear-gradient-10"/><linearGradient id="linear-gradient-25" x1="744.72" y1="526.1" x2="641.27" y2="526.1" xlink:href="#linear-gradient-10"/><linearGradient id="linear-gradient-26" x1="627.58" y1="336.88" x2="627.58" y2="501.45" xlink:href="#linear-gradient-10"/><linearGradient id="linear-gradient-27" x1="154.62" y1="428.3" x2="279.6" y2="428.3" xlink:href="#linear-gradient-3"/><linearGradient id="linear-gradient-28" x1="167.02" y1="280.69" x2="167.02" y2="445.26" xlink:href="#linear-gradient-10"/><linearGradient id="linear-gradient-29" x1="161.29" y1="234.95" x2="209.98" y2="328.7" xlink:href="#linear-gradient-3"/><linearGradient id="linear-gradient-30" x1="32.15" y1="293.68" x2="179.54" y2="293.68" xlink:href="#linear-gradient-10"/><linearGradient id="linear-gradient-31" x1="284.16" y1="293.68" x2="180.71" y2="293.68" xlink:href="#linear-gradient-10"/><linearGradient id="linear-gradient-32" x1="167.02" y1="104.46" x2="167.02" y2="269.03" xlink:href="#linear-gradient-10"/><linearGradient id="linear-gradient-33" x1="162.89" y1="504.73" x2="251.18" y2="681.31" xlink:href="#linear-gradient-3"/><linearGradient id="linear-gradient-34" x1="223" y1="653.32" x2="462.91" y2="653.32" xlink:href="#linear-gradient-3"/><linearGradient id="linear-gradient-35" x1="223" y1="606.43" x2="462.91" y2="606.43" xlink:href="#linear-gradient-3"/><linearGradient id="linear-gradient-36" x1="251.47" y1="514.4" x2="245.3" y2="575.23" xlink:href="#linear-gradient-14"/><linearGradient id="linear-gradient-37" x1="230.66" y1="551.69" x2="215.16" y2="581.09" gradientUnits="userSpaceOnUse"><stop offset="0" stop-color="#ba68c8" stop-opacity="0"/><stop offset="1" stop-color="#ba68c8"/></linearGradient><linearGradient id="linear-gradient-38" x1="267.05" y1="574.56" x2="252.63" y2="601.91" xlink:href="#linear-gradient-10"/><linearGradient id="linear-gradient-39" x1="289.81" y1="574" x2="275.86" y2="619.33" gradientUnits="userSpaceOnUse"><stop offset="0" stop-color="#ef5350"/><stop offset="1" stop-color="#ef5350" stop-opacity="0"/></linearGradient><linearGradient id="linear-gradient-40" x1="970.61" y1="2916.58" x2="970.61" y2="2705.2" gradientTransform="translate(1510.9 3177.09) rotate(-177.48)" xlink:href="#linear-gradient"/></defs><title>Mesa de trabajo 1</title><g class="cls-1"><g id="Capa_1" data-name="Capa 1"><path class="cls-2" d="M790,609.22q-1.71,9.9-4,19.67c-1.17,5-2.42,9.91-3.78,14.8-7.5,27-18.17,54-32.93,77.93-15.05,24.44-34.39,45.67-59,60.45a177.94,177.94,0,0,1-42.18,18H145.72c-48.59-26.38-91.24-72.81-82-127.17,8.06-47.31,15.64-94.5-1-138.22C50.73,503,27,476.92,13.61,445.72-19.51,368.3,22.14,298.2,83.89,255.21q3.36-2.34,6.79-4.57l1.63-1c2.51-1.61,5-3.28,7.45-5,5.32-3.7,10.44-7.59,15.48-11.69h0c3.78-3.08,7.48-6.23,11.14-9.49.86-.74,1.75-1.51,2.59-2.31,5-4.52,10-9.18,14.84-13.93,2.57-2.49,5.11-5,7.65-7.58,19.76-19.83,38.82-40.59,59.7-58.68,19.9-17.22,41.46-32,66.86-41.24A238.37,238.37,0,0,1,326.7,87.61a250,250,0,0,1,185.78,48.7q3.88,3,7.74,6.13c27.33,22.35,52.48,50.85,63.6,83.75,14,41.42,34.65,81.38,72.31,106,31.06,20.29,60.47,33.76,85.22,63.27A216.54,216.54,0,0,1,764.52,429a227,227,0,0,1,13.79,29.41A241.8,241.8,0,0,1,790,499.72C796.93,535.42,796.37,572.8,790,609.22Z"/><path class="cls-3" d="M8,693.17c-.78,13.73,0,28.17,6.93,40.08,5.78,10,19.31,17.65,28.68,10.9,7.1-5.13,7.61-15.66,5.24-24.09S42,703.7,41.3,695c-1-13.75,15.26-49-9.18-50.58C10.1,643,8.78,679.59,8,693.17Z"/><ellipse class="cls-4" cx="193.4" cy="741.83" rx="47.39" ry="18.67"/><ellipse class="cls-5" cx="435.19" cy="744.29" rx="47.39" ry="18.67"/><polygon class="cls-6" points="161.95 659.63 204.8 659.63 300.05 703.98 287.6 732.06 332.22 732.06 429.12 671.96 310.48 630.46 239.98 614.57 161.95 659.63"/><rect class="cls-7" x="170.77" y="335.41" width="234.87" height="154.08"/><path class="cls-8" d="M790,567.53v41.69q-1.71,9.9-4,19.67c-1.17,5-2.42,9.91-3.78,14.8-7.5,27-18.17,54-32.93,77.93H626.58V567.53Z"/><path class="cls-9" d="M790,499.72v109.5q-1.71,9.9-4,19.67H443.52V429h321a227,227,0,0,1,13.79,29.41A241.8,241.8,0,0,1,790,499.72Z"/><path class="cls-10" d="M520.37,580.27v-110H274.47v110h0c0,18.16,12,36.33,36,50.19,48,27.72,125.86,27.72,173.88,0C508.36,616.6,520.37,598.43,520.37,580.27Z"/><path class="cls-11" d="M520.37,580.27v-110H274.47v110h0c0,18.16,12,36.33,36,50.19,48,27.72,125.86,27.72,173.88,0C508.36,616.6,520.37,598.43,520.37,580.27Z"/><ellipse class="cls-12" cx="397.42" cy="470.27" rx="122.95" ry="70.98"/><ellipse class="cls-13" cx="397.42" cy="456.48" rx="122.95" ry="70.98"/><path class="cls-14" d="M427.39,435.27c-.43,12.82-14.6,22.75-31.65,22.18S365.22,446,365.65,433.19s14.6-22.74,31.65-22.17S427.83,422.45,427.39,435.27Z"/><path class="cls-15" d="M427.39,435.27c-.43,12.82-14.6,22.75-31.65,22.18S365.22,446,365.65,433.19s14.6-22.74,31.65-22.17S427.83,422.45,427.39,435.27Z"/><path class="cls-16" d="M447.86,407.63c-.52,15.63-23.51,27.54-51.34,26.6s-50-14.36-49.43-30,23.51-27.54,51.34-26.61S448.39,392,447.86,407.63Z"/><path class="cls-17" d="M447.86,407.63c-.52,15.63-23.51,27.54-51.34,26.6s-50-14.36-49.43-30,23.51-27.54,51.34-26.61S448.39,392,447.86,407.63Z"/><ellipse class="cls-18" cx="398.06" cy="388.43" rx="28.32" ry="50.42" transform="translate(-3.52 773.21) rotate(-88.07)"/><ellipse class="cls-19" cx="398.06" cy="388.43" rx="28.32" ry="50.42" transform="translate(-3.52 773.21) rotate(-88.07)"/><path class="cls-20" d="M355.27,394.86c-1.39.7-3.4-.5-4.48-2.67s-.83-4.49.56-5.18,3.39.5,4.48,2.67S356.66,394.17,355.27,394.86Z"/><path class="cls-20" d="M358,399.06a1.63,1.63,0,1,1,.95-2.27A1.75,1.75,0,0,1,358,399.06Z"/><path class="cls-20" d="M355.43,413.71c-1.39.69-3.4-.5-4.48-2.67s-.83-4.49.56-5.18,3.4.5,4.48,2.67S356.82,413,355.43,413.71Z"/><path class="cls-20" d="M358.15,417.91a1.75,1.75,0,0,1-2.39-.62,1.88,1.88,0,1,1,2.39.62Z"/><path class="cls-21" d="M489.12,270.29c.32-50.81-40.52-84.58-91.17-84.91S306,218.32,305.71,269.13c-.32,49.77,25.12,57.3,38.1,82.9a25,25,0,0,1,2.57,15.12c-.12,19.33,20.91,30.27,50.23,30.45s50.48-10.48,50.6-29.81A25,25,0,0,1,450,352.71C463.28,327.27,488.81,320.06,489.12,270.29Z"/><path class="cls-22" d="M489.13,270.29c0,3.11-.13,6-.34,8.85-.15,2.12-.38,4.18-.64,6.15A77.07,77.07,0,0,1,480.89,310c-.08.14-.13.27-.19.4-8.41,16.6-21.25,25.38-29.76,40.56q-.51.86-1,1.74a24.94,24.94,0,0,0-2.77,15.08,18.62,18.62,0,0,1-.13,2.25,8.2,8.2,0,0,1-.12,1,2.24,2.24,0,0,1-.07.51c0,.32-.1.64-.17.95s-.12.64-.21,1-.23.89-.36,1.31a.25.25,0,0,1,0,.11,20.84,20.84,0,0,1-1.44,3.49,1.2,1.2,0,0,1-.09.21c-5,9.54-16.8,15.7-32.53,18a99.51,99.51,0,0,1-15.44,1c-29.32-.18-50.34-11.11-50.23-30.46A24.84,24.84,0,0,0,343.8,352c-13-25.59-38.41-33.13-38.09-82.89.32-50.81,41.6-84.07,92.23-83.75S489.45,219.49,489.13,270.29Z"/><path class="cls-23" d="M426.44,314.26c-1.61-9.65-12.44-22.42-20.39-9.86-5.5,8.7-4.92,20.86-4.92,31v.63c-.9.07-1.81.12-2.7.14a2.21,2.21,0,0,0-.72.12,2.87,2.87,0,0,0-.72-.14c-.89,0-1.78-.07-2.68-.17v-.58c.14-8.78.16-17.78-2.5-26.15-4.17-13.21-16.38-12.63-21.2-.21-4.6,11.84-.31,20.95,7.8,26.36A33.16,33.16,0,0,0,389.48,340c0,.24,0,.47,0,.68,0,6.55-.07,13.09-.12,19.64q-.06,8.75-.11,17.48c0,2.63,0,5.24-.05,7.86,0,3.89-.05,7.76-.07,11.62,1.56.12,3.17.21,4.78.26,0-4,0-8,.07-12,0-2.66,0-5.29.07-7.95,0-5.82.07-11.67.11-17.5,0-6.43.07-12.89.12-19.32.88.09,1.79.16,2.7.19a2.41,2.41,0,0,0,.72-.1,1.78,1.78,0,0,0,.7.1c.91,0,1.82-.07,2.73-.14-.05,6.45-.09,12.93-.12,19.39,0,5.85-.09,11.67-.11,17.52,0,2.61-.05,5.2-.05,7.81,0,.6,0,1.23,0,1.84,0,3.38-.05,6.73-.07,10.14v0h.09a.25.25,0,0,0,.12,0s0,0,.07,0h.32l1.57-.07,1.35-.07,1.28-.1c0-3.86,0-7.76.07-11.62,0-1.15,0-2.29,0-3.43,0-1.35,0-2.73,0-4.08.05-5.85.07-11.7.12-17.55,0-6.59.07-13.21.12-19.81v-.62C418.59,337.68,428.94,329.27,426.44,314.26Zm-52.81,4.24c0-5.29,5.37-21.13,12-11.81,5.11,7.2,4.41,18.92,4,28.62C381.07,333.51,373.73,328.66,373.63,318.5Zm32.19,16.92c-.28-9.72-.84-21.44,4.36-28.57,6.75-9.25,11.95,6.67,11.83,12C421.78,329,414.37,333.72,405.82,335.42Z"/><ellipse class="cls-24" cx="395.43" cy="232.71" rx="64.26" ry="37.1" transform="translate(-6.2 10.88) rotate(-1.56)"/><path class="cls-25" d="M318.42,295.8c4.29,12.42,12.29,23.83,20.76,33.42,8.85,10,19.49,20,21.33,33.25.25,1.85.34,3.78,1.24,5.42s3,2.83,4.65,2.05a5,5,0,0,0,2-2,27.17,27.17,0,0,0,3.47-19.76c-2.29-10.79-10.63-18.62-17.61-26.6-6.77-7.76-12.55-17.7-14.71-27.86-1.36-6.39-1.78-12.95-3.16-19.33a22.37,22.37,0,0,0-3.4-8.63,9.79,9.79,0,0,0-7.89-4.31c-3.31.11-6.25,2.46-7.83,5.38a21,21,0,0,0-2.05,9.64A56,56,0,0,0,318.42,295.8Z"/><path class="cls-26" d="M489.13,270.29c0,3.09-.11,6-.34,8.85-.15,2.12-.38,4.18-.64,6.15A83.45,83.45,0,0,1,480.89,310c-.08.14-.13.27-.19.4-8.41,16.6-21.25,25.38-29.76,40.56q-.51.86-1,1.74a24.94,24.94,0,0,0-2.77,15.08,18.62,18.62,0,0,1-.13,2.25,8.2,8.2,0,0,1-.12,1,2.24,2.24,0,0,1-.07.51c0,.32-.1.64-.17.95s-.12.64-.21,1-.23.89-.36,1.31a.25.25,0,0,1,0,.11,20.84,20.84,0,0,1-1.44,3.49,1.2,1.2,0,0,1-.09.21,18.46,18.46,0,0,1,3.88,11.53,17.59,17.59,0,0,1-2.76,8.68,17.26,17.26,0,0,1,2.15,8.83c-.3,9.33-8.61,17.33-21.19,22.06a18,18,0,0,1,.74,5.57c-.44,12.83-14.61,22.75-31.66,22.18-1,0-1.91-.09-2.86-.2,3.7-4.46,7.88-8.72,10-12.92,7.37-14.63,8.3-31.68,9.17-47.74l.06-.91q1.11-20.31,2.22-40.59a11.94,11.94,0,0,1,.68-4c1.59-3.69,6.28-4.53,10.21-5.46C468,335.6,485.46,303.81,489.13,270.29Z"/><path class="cls-21" d="M485.31,172.89a8.19,8.19,0,1,1-8.19-8.19A8.19,8.19,0,0,1,485.31,172.89Z"/><path class="cls-21" d="M485.31,399.28a8.19,8.19,0,1,1-8.19-8.19A8.2,8.2,0,0,1,485.31,399.28Z"/><circle class="cls-21" cx="328.73" cy="363.88" r="8.19"/><circle class="cls-21" cx="494.29" cy="148.68" r="5.17"/><circle class="cls-21" cx="485.31" cy="352.96" r="5.17"/><circle class="cls-21" cx="342.09" cy="145.66" r="5.17"/><circle class="cls-21" cx="499.46" cy="416.78" r="5.17"/><circle class="cls-21" cx="315.18" cy="443.29" r="5.17"/><path class="cls-27" d="M520.37,456.48V145.66c0,18.16-12,36.33-36,50.19-48,27.72-125.86,27.72-173.88,0-24-13.86-36-32-36-50.19V456.48h0c0,18.17,12,36.34,36,50.2,48,27.72,125.86,27.72,173.88,0C508.36,492.82,520.37,474.65,520.37,456.48Z"/><path class="cls-28" d="M520.37,456.48V145.66c0,18.16-12,36.33-36,50.19-48,27.72-125.86,27.72-173.88,0-24-13.86-36-32-36-50.19V456.48h0c0,18.17,12,36.34,36,50.2,48,27.72,125.86,27.72,173.88,0C508.36,492.82,520.37,474.65,520.37,456.48Z"/><ellipse class="cls-29" cx="397.42" cy="145.66" rx="122.95" ry="70.98"/><path class="cls-30" d="M292.88,344.09h0a16.79,16.79,0,0,1-8.38-14.52v-113a3.23,3.23,0,0,1,4.85-2.8h0a17.19,17.19,0,0,1,8.59,14.89V341.17A3.38,3.38,0,0,1,292.88,344.09Z"/><path class="cls-30" d="M292.88,394.94h0a16.77,16.77,0,0,1-8.38-14.51V364.37a3.23,3.23,0,0,1,4.85-2.8h0a17.2,17.2,0,0,1,8.59,14.89V392A3.37,3.37,0,0,1,292.88,394.94Z"/><path class="cls-10" d="M710.71,673.91V599.53H544.45v74.38h0c0,12.28,8.12,24.57,24.35,33.94,32.47,18.74,85.1,18.74,117.56,0C702.6,698.48,710.71,686.19,710.71,673.91Z"/><path class="cls-31" d="M710.71,673.91V599.53H544.45v74.38h0c0,12.28,8.12,24.57,24.35,33.94,32.47,18.74,85.1,18.74,117.56,0C702.6,698.48,710.71,686.19,710.71,673.91Z"/><ellipse class="cls-12" cx="627.58" cy="599.53" rx="83.13" ry="47.99"/><ellipse class="cls-32" cx="627.58" cy="590.21" rx="83.13" ry="47.99"/><path class="cls-21" d="M687.25,456.48a5.54,5.54,0,1,1-5.54-5.53A5.54,5.54,0,0,1,687.25,456.48Z"/><circle class="cls-21" cx="676.17" cy="575.75" r="5.54"/><path class="cls-21" d="M586.68,533.14a5.54,5.54,0,1,1-5.54-5.54A5.54,5.54,0,0,1,586.68,533.14Z"/><path class="cls-21" d="M674.13,433.06a3.5,3.5,0,1,1-3.5-3.5A3.5,3.5,0,0,1,674.13,433.06Z"/><path class="cls-21" d="M658.54,590.21a3.5,3.5,0,1,1-3.49-3.49A3.5,3.5,0,0,1,658.54,590.21Z"/><path class="cls-21" d="M584,428.05a3.5,3.5,0,1,1-3.49-3.5A3.49,3.49,0,0,1,584,428.05Z"/><path class="cls-21" d="M700.08,530.65a3.5,3.5,0,1,1-3.5-3.5A3.5,3.5,0,0,1,700.08,530.65Z"/><path class="cls-21" d="M575.47,581.29A3.5,3.5,0,1,1,572,577.8,3.5,3.5,0,0,1,575.47,581.29Z"/><path class="cls-33" d="M679.73,517.23a7.31,7.31,0,0,1,0,.81,49.61,49.61,0,0,1-.87,9.11,35.71,35.71,0,0,1-1.25,4.82c-2.12,6.45-5.75,11.3-10.46,14.28l0,0-.42.25c-.26.13-.51.29-.8.45l-12.84,7.45-2.89-5a44.67,44.67,0,0,1-16.15-5.87c-25.23-14.54-45.65-50-45.65-79.1a51.25,51.25,0,0,1,.64-8.28,47.77,47.77,0,0,1,1-4.69c.35-1.22.74-2.38,1.15-3.5l-3-5.2,13-7.48c.45-.26.87-.51,1.32-.74l.71-.42,0,.07c5.26-2.54,11.68-3.05,18.81-1.19a40.19,40.19,0,0,1,4.56,1.48,51.77,51.77,0,0,1,7.48,3.59,6.1,6.1,0,0,1,.58.36c1.12.64,2.24,1.38,3.37,2.15a63.93,63.93,0,0,1,6.45,4.88c.93.8,1.9,1.6,2.79,2.47,1.87,1.7,3.66,3.53,5.43,5.46.8.86,1.6,1.79,2.38,2.72,1.63,1.9,3.17,3.86,4.68,5.88.68,1,1.38,1.93,2,2.92,1.42,2,2.77,4.14,4,6.29.61,1,1.22,2.06,1.76,3.08,1.22,2.19,2.35,4.4,3.37,6.65.52,1.09,1,2.15,1.45,3.24q1.49,3.52,2.7,7c.41,1.16.77,2.31,1.12,3.47a72.51,72.51,0,0,1,1.89,7.48c.29,1.22.52,2.47.71,3.69a71.08,71.08,0,0,1,.87,8.09C679.7,515.08,679.73,516.17,679.73,517.23Z"/><path class="cls-34" d="M626.57,434.54,589,456.21,586,458l-.93-3.56,5-2.89,32-18.46A40.19,40.19,0,0,1,626.57,434.54Z"/><path class="cls-34" d="M638,440.64,592.51,466.9l-.93-3.57,43-24.84C635.75,439.13,636.87,439.87,638,440.64Z"/><path class="cls-34" d="M647.24,448,599,475.82l-.9-3.56,46.32-26.74C645.38,446.32,646.35,447.12,647.24,448Z"/><path class="cls-34" d="M655.05,456.17l-49.47,28.54-.94-3.56,48-27.7C653.47,454.31,654.27,455.24,655.05,456.17Z"/><path class="cls-34" d="M661.75,465l-49.66,28.67-.9-3.57,48.54-28C660.41,463,661.11,464,661.75,465Z"/><path class="cls-34" d="M667.53,474.34l-48.89,28.22-.93-3.56,48.06-27.74C666.38,472.29,667,473.32,667.53,474.34Z"/><path class="cls-34" d="M672.35,484.23l-47.19,27.26-.93-3.57L670.9,481C671.42,482.08,671.9,483.14,672.35,484.23Z"/><path class="cls-34" d="M676.17,494.73l-44.5,25.68-.89-3.56,44.27-25.59C675.46,492.42,675.82,493.57,676.17,494.73Z"/><path class="cls-34" d="M678.77,505.9l-40.55,23.44-.93-3.57,40.77-23.56C678.35,503.43,678.58,504.68,678.77,505.9Z"/><path class="cls-34" d="M679.73,517.23a7.31,7.31,0,0,1,0,.81l-35,20.19-.93-3.56L679.64,514C679.7,515.08,679.73,516.17,679.73,517.23Z"/><path class="cls-34" d="M678.83,527.15a35.71,35.71,0,0,1-1.25,4.82l-26.32,15.18-.9-3.56Z"/><ellipse class="cls-35" cx="621.1" cy="498.34" rx="37.29" ry="64.58" transform="translate(-165.96 377.32) rotate(-30)"/><path class="cls-33" d="M629.44,462c-1.58,0-3.19,0-4.77,0a65.92,65.92,0,0,1,5,4.76l2.84-1.66C631.54,464,630.49,462.94,629.44,462ZM589,456.21c0,.09,0,.21,0,.3l1,.28a14.77,14.77,0,0,1,1.26-1.86Zm40.4,5.75c-1.58,0-3.19,0-4.77,0a65.92,65.92,0,0,1,5,4.76l2.84-1.66C631.54,464,630.49,462.94,629.44,462ZM589,456.51l1,.28a14.77,14.77,0,0,1,1.26-1.86L589,456.21C589,456.3,589,456.42,589,456.51Zm69.31,61.22c-.14-1.26-.33-2.52-.54-3.78a77.34,77.34,0,0,0-1.75-7.59c-.32-1.17-.67-2.33-1-3.5-.77-2.35-1.65-4.73-2.63-7.06-.44-1.09-.93-2.21-1.42-3.29-1-2.26-2.15-4.49-3.33-6.66-.59-1.05-1.17-2.07-1.78-3.08-1.25-2.14-2.61-4.24-4-6.27-.65-1-1.35-1.93-2.07-2.89-1.49-2.05-3.08-4-4.71-5.87-.81-.93-1.63-1.82-2.45-2.68-1-1.07-2-2.12-3.1-3.1-.81-.79-1.65-1.53-2.49-2.26s-1.91-1.65-2.89-2.42a58.82,58.82,0,0,0-6.83-4.64.31.31,0,0,0-.14-.09c-1.21-.7-2.4-1.33-3.59-1.87a33.17,33.17,0,0,0-9.64-3,19,19,0,0,0-3.15-.25,17.63,17.63,0,0,0-4.45.53,14.05,14.05,0,0,0-6.15,3.38l-.4.4,0,0a16.66,16.66,0,0,0-2.89,4.06c-.33.6-.61,1.26-.89,1.88v0A39.25,39.25,0,0,0,583.47,472c0,25,17.47,56.31,38.8,70.34.93.65,1.88,1.23,2.84,1.79,5.85,3.38,11.51,5.17,16.38,5.17a17.58,17.58,0,0,0,4.71-.6,13.28,13.28,0,0,0,4.82-2.43,11.16,11.16,0,0,0,1.89-1.74,17.48,17.48,0,0,0,2.66-3.92v0a31.52,31.52,0,0,0,2.84-10.23,40.65,40.65,0,0,0,.3-4.27c0-.49,0-1,0-1.37A55,55,0,0,0,658.3,517.73Zm-3.45,14.66c-.82,4.26-2.52,8.81-6.06,11.44a12,12,0,0,1-7.3,2.24,20.81,20.81,0,0,1-3.26-.28h0a32.83,32.83,0,0,1-9.81-3.57h0c-.54-.28-1.1-.56-1.63-.88C605,528.8,586.66,497,586.66,472a36.11,36.11,0,0,1,2-12.3,17.78,17.78,0,0,1,1.37-2.89,14.77,14.77,0,0,1,1.26-1.86l0,0a11.33,11.33,0,0,1,7.16-4.12h0a15.86,15.86,0,0,1,2.26-.17,25.51,25.51,0,0,1,9.35,2.05c1.28.52,2.58,1.15,3.91,1.85.51.25,1,.53,1.52.83A55.5,55.5,0,0,1,621,459c1,.74,2,1.53,3,2.37a3.67,3.67,0,0,1,.63.56h0a65.92,65.92,0,0,1,5,4.76c.86.86,1.68,1.74,2.47,2.65,1.66,1.84,3.24,3.8,4.78,5.83.7.93,1.4,1.91,2.07,2.89,1.42,2,2.78,4.12,4,6.27.61,1,1.22,2,1.78,3.07,1.18,2.19,2.3,4.43,3.3,6.69.52,1.07,1,2.17,1.43,3.26,1,2.36,1.84,4.74,2.56,7.11v0c.4,1.18.72,2.33,1,3.49a74.53,74.53,0,0,1,1.61,7.65c.21,1.28.37,2.56.49,3.82.16,1.77.25,3.52.25,5.22,0,.93,0,2-.11,3.28A41.57,41.57,0,0,1,654.85,532.39ZM589,456.21c0,.09,0,.21,0,.3l1,.28a14.77,14.77,0,0,1,1.26-1.86Zm40.4,5.75c-1.58,0-3.19,0-4.77,0a65.92,65.92,0,0,1,5,4.76l2.84-1.66C631.54,464,630.49,462.94,629.44,462Z"/><path class="cls-33" d="M633.83,506.47a23,23,0,0,0-1.66-3.14,29.07,29.07,0,0,0-4.85-5.78c-.93-.86-1.88-1.7-2.86-2.45-.72-.58-1.45-1.12-2.17-1.63a20.69,20.69,0,0,1-4.1-3.36,4.37,4.37,0,0,1-1.17-2.93,1.85,1.85,0,0,1,.07-.51,1.13,1.13,0,0,1,1.38-.8,7.38,7.38,0,0,1,2.86,1.07c.38.21.75.45,1.12.7a21.19,21.19,0,0,1,5.74,5.32,9.46,9.46,0,0,1,.58.79l3.52-3.17,0-.05h0l.86-.77a38.77,38.77,0,0,0-4.61-5.66,35.83,35.83,0,0,0-2.78-2.47c-.28-.23-.58-.46-.86-.67V476.3l-2.4-1.38L619,472.87l-1.67-1v4.78a14.28,14.28,0,0,0-3.5-.82h0c-2.52-.18-4.48.7-5.32,3.08A9,9,0,0,0,608,482c0,.44,0,.86,0,1.28a18,18,0,0,0,4,10.21l0,0a.42.42,0,0,0,.07.12A32,32,0,0,0,617.7,499c1,.8,2.07,1.56,3.15,2.29a.44.44,0,0,0,.11.09c2.92,2,4.66,3.85,5.13,5.48a2.28,2.28,0,0,1,.19.93,1.41,1.41,0,0,1-1.68,1.58,7.56,7.56,0,0,1-3.31-1.21,25.23,25.23,0,0,1-9.32-9.51L607,502.33c3.31,6,6.47,9.46,10.3,12.18v4.94l7.64,4.41v-5.08a10.89,10.89,0,0,0,6.5.77c2-.56,3.36-2.19,3.64-5.2v0a12.59,12.59,0,0,0,.07-1.26A17,17,0,0,0,633.83,506.47Z"/><path class="cls-36" d="M710.71,590.21V414c0,12.28-8.11,24.57-24.35,33.94-32.46,18.74-85.09,18.74-117.56,0-16.23-9.37-24.35-21.66-24.35-33.94V590.21h0c0,12.29,8.12,24.57,24.35,33.94,32.47,18.74,85.1,18.74,117.56,0C702.6,614.78,710.71,602.5,710.71,590.21Z"/><path class="cls-37" d="M710.71,590.21V414c0,12.28-8.11,24.57-24.35,33.94-32.46,18.74-85.09,18.74-117.56,0-16.23-9.37-24.35-21.66-24.35-33.94V590.21h0c0,12.29,8.12,24.57,24.35,33.94,32.47,18.74,85.1,18.74,117.56,0C702.6,614.78,710.71,602.5,710.71,590.21Z"/><ellipse class="cls-38" cx="627.58" cy="413.98" rx="83.13" ry="47.99"/><path class="cls-30" d="M556.9,514.22h0a11.35,11.35,0,0,1-5.66-9.82V453.49a2.18,2.18,0,0,1,3.27-1.89h0a11.6,11.6,0,0,1,5.81,10.07v50.57A2.28,2.28,0,0,1,556.9,514.22Z"/><path class="cls-30" d="M556.9,548.6h0a11.33,11.33,0,0,1-5.66-9.81V527.93a2.18,2.18,0,0,1,3.27-1.89h0a11.63,11.63,0,0,1,5.81,10.07v10.52A2.28,2.28,0,0,1,556.9,548.6Z"/><path class="cls-10" d="M250.15,441.49V367.11H83.89v74.38h0c0,12.29,8.12,24.57,24.35,33.94,32.46,18.74,85.1,18.74,117.56,0C242,466.06,250.15,453.78,250.15,441.49Z"/><path class="cls-39" d="M250.15,441.49V367.11H83.89v74.38h0c0,12.29,8.12,24.57,24.35,33.94,32.46,18.74,85.1,18.74,117.56,0C242,466.06,250.15,453.78,250.15,441.49Z"/><ellipse class="cls-12" cx="167.02" cy="367.12" rx="83.13" ry="47.99"/><ellipse class="cls-40" cx="167.02" cy="357.8" rx="83.13" ry="47.99"/><circle class="cls-41" cx="221.14" cy="224.07" r="5.54"/><circle class="cls-41" cx="215.61" cy="343.34" r="5.54"/><path class="cls-41" d="M126.11,300.72a5.54,5.54,0,1,1-5.54-5.54A5.54,5.54,0,0,1,126.11,300.72Z"/><path class="cls-41" d="M213.56,200.64a3.5,3.5,0,1,1-3.49-3.49A3.5,3.5,0,0,1,213.56,200.64Z"/><path class="cls-41" d="M198,357.8a3.5,3.5,0,1,1-3.5-3.5A3.5,3.5,0,0,1,198,357.8Z"/><path class="cls-41" d="M123.45,195.63a3.5,3.5,0,1,1-3.5-3.49A3.5,3.5,0,0,1,123.45,195.63Z"/><path class="cls-41" d="M239.51,298.23a3.5,3.5,0,1,1-3.49-3.5A3.49,3.49,0,0,1,239.51,298.23Z"/><path class="cls-41" d="M114.91,348.87a3.5,3.5,0,1,1-3.5-3.49A3.5,3.5,0,0,1,114.91,348.87Z"/><path class="cls-41" d="M219.17,284.82a7.22,7.22,0,0,1,0,.8,50.7,50.7,0,0,1-.87,9.12,35.56,35.56,0,0,1-1.25,4.81c-2.12,6.45-5.75,11.3-10.47,14.29l0,0-.41.26c-.26.12-.52.29-.81.45L192.52,322l-2.89-5a44.92,44.92,0,0,1-16.14-5.88c-25.24-14.54-45.65-50-45.65-79.1a51.35,51.35,0,0,1,.64-8.28c.26-1.64.61-3.21,1-4.69.36-1.22.74-2.37,1.16-3.5l-3-5.2,13-7.48c.45-.25.87-.51,1.32-.74l.7-.41,0,.06c5.26-2.53,11.68-3.05,18.81-1.19a40.85,40.85,0,0,1,4.56,1.48,50.83,50.83,0,0,1,7.48,3.6,4.38,4.38,0,0,1,.57.35c1.13.64,2.25,1.38,3.38,2.15a65.45,65.45,0,0,1,6.45,4.88c.93.8,1.89,1.61,2.79,2.47,1.86,1.7,3.66,3.53,5.43,5.46.8.87,1.6,1.8,2.37,2.73,1.64,1.89,3.18,3.85,4.69,5.87.67,1,1.38,1.93,2,2.92,1.41,2,2.76,4.15,4,6.3.61,1,1.22,2.05,1.77,3.08,1.22,2.18,2.34,4.4,3.37,6.64.51,1.09,1,2.15,1.45,3.25q1.49,3.51,2.69,7c.42,1.15.77,2.31,1.13,3.46a73.16,73.16,0,0,1,1.89,7.48c.29,1.22.51,2.47.71,3.69a71,71,0,0,1,.86,8.09C219.14,282.67,219.17,283.76,219.17,284.82Z"/><path class="cls-42" d="M219.17,284.82a7.22,7.22,0,0,1,0,.8,50.7,50.7,0,0,1-.87,9.12,35.56,35.56,0,0,1-1.25,4.81c-2.12,6.45-5.75,11.3-10.47,14.29l0,0-.41.26c-.26.12-.52.29-.81.45L192.52,322l-2.89-5a44.92,44.92,0,0,1-16.14-5.88c-25.24-14.54-45.65-50-45.65-79.1a51.35,51.35,0,0,1,.64-8.28c.26-1.64.61-3.21,1-4.69.36-1.22.74-2.37,1.16-3.5l-3-5.2,13-7.48c.45-.25.87-.51,1.32-.74l.7-.41,0,.06c5.26-2.53,11.68-3.05,18.81-1.19a40.85,40.85,0,0,1,4.56,1.48,50.83,50.83,0,0,1,7.48,3.6,4.38,4.38,0,0,1,.57.35c1.13.64,2.25,1.38,3.38,2.15a65.45,65.45,0,0,1,6.45,4.88c.93.8,1.89,1.61,2.79,2.47,1.86,1.7,3.66,3.53,5.43,5.46.8.87,1.6,1.8,2.37,2.73,1.64,1.89,3.18,3.85,4.69,5.87.67,1,1.38,1.93,2,2.92,1.41,2,2.76,4.15,4,6.3.61,1,1.22,2.05,1.77,3.08,1.22,2.18,2.34,4.4,3.37,6.64.51,1.09,1,2.15,1.45,3.25q1.49,3.51,2.69,7c.42,1.15.77,2.31,1.13,3.46a73.16,73.16,0,0,1,1.89,7.48c.29,1.22.51,2.47.71,3.69a71,71,0,0,1,.86,8.09C219.14,282.67,219.17,283.76,219.17,284.82Z"/><ellipse class="cls-43" cx="160.54" cy="265.92" rx="37.29" ry="64.58" transform="translate(-111.46 115.9) rotate(-30)"/><ellipse class="cls-44" cx="160.54" cy="265.92" rx="29.4" ry="50.93" transform="matrix(0.87, -0.5, 0.5, 0.87, -111.46, 115.9)"/><ellipse class="cls-44" cx="160.54" cy="265.92" rx="20.51" ry="35.52" transform="translate(-111.46 115.9) rotate(-30)"/><path class="cls-44" d="M175.4,274.5c0,9.48-6.66,13.32-14.86,8.58s-14.86-16.26-14.86-25.74,6.65-13.31,14.86-8.57S175.4,265,175.4,274.5Z"/><path class="cls-12" d="M166.38,269.3c0,3.73-2.61,5.24-5.84,3.37a12.9,12.9,0,0,1-5.85-10.12c0-3.73,2.62-5.24,5.85-3.38A12.93,12.93,0,0,1,166.38,269.3Z"/><path class="cls-45" d="M250.15,357.8V181.57c0,12.28-8.12,24.56-24.35,33.93-32.46,18.75-85.1,18.75-117.56,0C92,206.13,83.89,193.85,83.89,181.57V357.8h0c0,12.28,8.12,24.56,24.35,33.93,32.46,18.75,85.1,18.75,117.56,0C242,382.36,250.15,370.08,250.15,357.8Z"/><path class="cls-46" d="M250.15,357.8V181.57c0,12.28-8.12,24.56-24.35,33.93-32.46,18.75-85.1,18.75-117.56,0C92,206.13,83.89,193.85,83.89,181.57V357.8h0c0,12.28,8.12,24.56,24.35,33.93,32.46,18.75,85.1,18.75,117.56,0C242,382.36,250.15,370.08,250.15,357.8Z"/><ellipse class="cls-47" cx="167.02" cy="181.57" rx="83.13" ry="47.99"/><path class="cls-30" d="M96.34,281.8h0A11.31,11.31,0,0,1,90.67,272V221.07A2.19,2.19,0,0,1,94,219.18h0a11.65,11.65,0,0,1,5.81,10.07v50.58A2.28,2.28,0,0,1,96.34,281.8Z"/><path class="cls-30" d="M96.34,316.19h0a11.34,11.34,0,0,1-5.67-9.82V295.52A2.19,2.19,0,0,1,94,293.63h0a11.62,11.62,0,0,1,5.81,10.06v10.52A2.28,2.28,0,0,1,96.34,316.19Z"/><path class="cls-48" d="M420.6,568.2S406.88,582.8,406,597.31l2.67,5.71,5.52-4s3.92-19.07,11.05-24.77Z"/><path class="cls-49" d="M452.8,739.18s.95,9-3.47,8.56c-5.15-.54-21.09-11.27-17.54-14.66s16.85,2.74,16.85,2.74Z"/><path class="cls-49" d="M424.47,752.55s.94,9-3.48,8.56c-5.14-.55-21.09-11.28-17.54-14.66s16.86,2.74,16.86,2.74Z"/><rect class="cls-50" x="428.5" y="527.43" width="9.46" height="13.36"/><path class="cls-48" d="M418.43,599.46s-15.22,34.74-3.79,154a1.91,1.91,0,0,0,.94,1.47c2,1.15,7.05,3.2,9.66-3.54a2.17,2.17,0,0,0,.13-.56l9.91-124.88c.08-2,1.13-2.1,1.33-.1L442.7,740a2.14,2.14,0,0,0,1.4,1.91c2.66,1,8.5,2.17,9.59-6.23,0,0,10.34-123.51-1.74-140.25Z"/><path class="cls-49" d="M452,591.59a5.65,5.65,0,0,1-1,1.42c-3.46,3.55-12.8,9.94-31.4,3.29a3.55,3.55,0,0,1-1.11-.66v3.82a3.55,3.55,0,0,0,1.11.66c18.6,6.65,27.94.26,31.4-3.29a5.78,5.78,0,0,0,1-1.41Z"/><path class="cls-12" d="M489.77,478.32s0-8.09,1.11-8.26c.78-.12.75,2.56.75,2.56s.9-6,2.21-5.67c.47.12-.12,3.81-.12,3.81s.56-2.12,3.92,0c1,.65.79,2.62-3.2,8.89Z"/><path class="cls-51" d="M450,532.54s28.31-2.45,39.49-54.86a6.38,6.38,0,0,1,5.42,1.91s-1.66,63-40.85,75.11Z"/><path class="cls-52" d="M428.5,536.26l9.46-2.15,14.93-2c3.65-.48,6.28,4.81,6.54,10.47.5,10.75-6.72,47.36-6.72,47.36a6.2,6.2,0,0,1-1.74,3.94c-3.44,3.54-12.77,10-31.43,3.32a3.39,3.39,0,0,1-2.22-2.71l-6.94-43.27a6,6,0,0,1,2.46-5.84Z"/><path class="cls-12" d="M416.73,510.63s1.15,12.92,6.49,19.54,15.69-4.31,17.23-7.49,4-23.17-12-23.17C418,499.51,416.2,506,416.73,510.63Z"/><path class="cls-48" d="M432.2,518.67a21.73,21.73,0,0,1-7.4-10.32s-1.18-.7-7.75,4.81c0,0-7.41,0-4-7.84s17.69-17.69,24.54-9.88c0,0,13.05-2.17,10.52,14.73-3.32,22.26-13.75,18.6-16.36,13.51S432.2,518.67,432.2,518.67Z"/><path class="cls-12" d="M428.83,516.06s2.16-4.26,3.94-1.72-.36,7.67-4.26,8.34Z"/><polygon class="cls-48" points="369.81 532.41 389.9 552.42 410.06 540.44 389.9 519.81 369.81 532.41"/><polyline class="cls-53" points="388.2 543.11 388.2 538.62 392.43 538.62 392.43 529.18"/><polyline class="cls-53" points="388.43 531.79 392.19 528.03 396.43 532.27"/><path class="cls-12" d="M378.53,541.07a25.33,25.33,0,0,1,2.82-3.1.5.5,0,0,1,.83.49l-.84,3s4.28-1.19,1.88,5.85l-4.15,1.12Z"/><path class="cls-51" d="M383.59,547.18s22,39.55,8.92,42-13.72-40.73-13.72-40.73S380.07,546.66,383.59,547.18Z"/><path class="cls-51" d="M412.84,545.43s-5.91,3-14.13,14.67C387.56,576,382.42,585.48,392.79,589c2.62.88,20.73-18.11,20.73-18.11S420.89,555.12,412.84,545.43Z"/><path class="cls-51" d="M426.59,537.38l1.91-3.27s3.25-2,9.46-2.12l2.27,1.92S439.74,536.16,426.59,537.38Z"/><polygon class="cls-10" points="233.48 498.27 161.95 659.63 155.44 655.76 155.44 562 233.48 498.27"/><polygon class="cls-10" points="239.98 502.14 239.98 614.57 161.95 659.63 161.95 565.86 239.98 502.14"/><polygon class="cls-54" points="239.98 502.14 239.98 614.57 161.95 659.63 161.95 565.86 239.98 502.14"/><polygon class="cls-10" points="359.14 570.71 287.6 732.06 281.1 728.2 281.1 634.43 359.14 570.71"/><polygon class="cls-10" points="365.64 574.58 365.64 687.01 287.6 732.06 287.6 638.3 365.64 574.58"/><polygon class="cls-55" points="365.64 574.58 365.64 687.01 287.6 732.06 287.6 638.3 365.64 574.58"/><polygon class="cls-10" points="287.6 644.58 155.44 568.28 365.64 574.58 365.64 580.86 287.6 644.58"/><polygon class="cls-56" points="287.6 644.58 155.44 568.28 365.64 574.58 365.64 580.86 287.6 644.58"/><polygon class="cls-12" points="287.6 638.3 155.44 562 233.48 498.27 365.64 574.58 287.6 638.3"/><polygon class="cls-48" points="285.81 627.81 170.82 561.37 235.27 508.74 350.26 575.18 285.81 627.81"/><path class="cls-57" d="M256.74,569.63l-43.83-25.32a1.67,1.67,0,0,1-.22-2.74l23.1-18.87a3.87,3.87,0,0,1,4.35-.35l43.22,25a2.15,2.15,0,0,1,.28,3.53l-22.56,18.42A3.82,3.82,0,0,1,256.74,569.63Z"/><path class="cls-58" d="M237.09,585.34,193.26,560a1.66,1.66,0,0,1-.22-2.73l11.43-9.12a3.82,3.82,0,0,1,4.34-.35l43.22,25a2.15,2.15,0,0,1,.28,3.53L241.43,585A3.85,3.85,0,0,1,237.09,585.34Z"/><path class="cls-59" d="M259.25,598.6,245,590.43a1.67,1.67,0,0,1-.22-2.74l11.42-9.12a3.82,3.82,0,0,1,4.34-.35l13.68,7.83a2.15,2.15,0,0,1,.29,3.53l-10.89,8.67A3.82,3.82,0,0,1,259.25,598.6Z"/><path class="cls-60" d="M281.62,611.25l-15.24-9a1.67,1.67,0,0,1-.22-2.74l11.43-9.12a3.82,3.82,0,0,1,4.34-.35l14.64,8.67a2.15,2.15,0,0,1,.28,3.53L286,610.9A3.82,3.82,0,0,1,281.62,611.25Z"/><polygon class="cls-10" points="287.6 644.58 287.6 638.3 155.44 562 155.44 568.28 287.6 644.58"/><path class="cls-61" d="M221.52,542.94c.11-.22,21.27-1.69,21.27-1.69l4.1,7.38h25.48L266.85,546"/><line class="cls-61" x1="272.37" y1="548.63" x2="272.37" y2="553.01"/><ellipse class="cls-43" cx="296.04" cy="557.39" rx="2.66" ry="1.53"/><ellipse class="cls-62" cx="303.72" cy="561.77" rx="2.66" ry="1.53"/><path class="cls-43" d="M313.27,567.24a4.13,4.13,0,0,1-3.75,0,1.14,1.14,0,0,1,0-2.17,4.13,4.13,0,0,1,3.75,0A1.14,1.14,0,0,1,313.27,567.24Z"/><path class="cls-43" d="M321,571.62a4.13,4.13,0,0,1-3.75,0,1.14,1.14,0,0,1,0-2.17,4.13,4.13,0,0,1,3.75,0A1.14,1.14,0,0,1,321,571.62Z"/><path class="cls-43" d="M328.63,576a4.13,4.13,0,0,1-3.75,0,1.14,1.14,0,0,1,0-2.17,4.13,4.13,0,0,1,3.75,0A1.14,1.14,0,0,1,328.63,576Z"/><path class="cls-43" d="M291.6,563.28a4.15,4.15,0,0,1-3.76,0,1.14,1.14,0,0,1,0-2.17,4.15,4.15,0,0,1,3.76,0A1.15,1.15,0,0,1,291.6,563.28Z"/><path class="cls-43" d="M299.28,567.66a4.15,4.15,0,0,1-3.76,0,1.14,1.14,0,0,1,0-2.17,4.15,4.15,0,0,1,3.76,0A1.15,1.15,0,0,1,299.28,567.66Z"/><path class="cls-43" d="M307,572a4.15,4.15,0,0,1-3.76,0,1.14,1.14,0,0,1,0-2.17,4.15,4.15,0,0,1,3.76,0A1.15,1.15,0,0,1,307,572Z"/><path class="cls-62" d="M314.64,576.42a4.15,4.15,0,0,1-3.76,0,1.14,1.14,0,0,1,0-2.17,4.15,4.15,0,0,1,3.76,0A1.15,1.15,0,0,1,314.64,576.42Z"/><path class="cls-62" d="M322.32,580.8a4.15,4.15,0,0,1-3.76,0,1.14,1.14,0,0,1,0-2.17,4.15,4.15,0,0,1,3.76,0A1.15,1.15,0,0,1,322.32,580.8Z"/><path class="cls-62" d="M285.28,568.08a4.15,4.15,0,0,1-3.76,0,1.15,1.15,0,0,1,0-2.17,4.15,4.15,0,0,1,3.76,0A1.14,1.14,0,0,1,285.28,568.08Z"/><path class="cls-43" d="M293,572.46a4.15,4.15,0,0,1-3.76,0,1.15,1.15,0,0,1,0-2.17,4.15,4.15,0,0,1,3.76,0A1.14,1.14,0,0,1,293,572.46Z"/><ellipse class="cls-62" cx="298.76" cy="575.75" rx="2.66" ry="1.53"/><path class="cls-43" d="M308.32,581.22a4.15,4.15,0,0,1-3.76,0,1.15,1.15,0,0,1,0-2.17,4.15,4.15,0,0,1,3.76,0A1.14,1.14,0,0,1,308.32,581.22Z"/><path class="cls-43" d="M316,585.6a4.15,4.15,0,0,1-3.76,0,1.15,1.15,0,0,1,0-2.17,4.15,4.15,0,0,1,3.76,0A1.14,1.14,0,0,1,316,585.6Z"/><path class="cls-43" d="M279,572.88a4.13,4.13,0,0,1-3.75,0,1.14,1.14,0,0,1,0-2.17,4.13,4.13,0,0,1,3.75,0A1.14,1.14,0,0,1,279,572.88Z"/><path class="cls-43" d="M286.64,577.26a4.13,4.13,0,0,1-3.75,0,1.14,1.14,0,0,1,0-2.17,4.13,4.13,0,0,1,3.75,0A1.14,1.14,0,0,1,286.64,577.26Z"/><path class="cls-43" d="M294.32,581.64a4.13,4.13,0,0,1-3.75,0,1.14,1.14,0,0,1,0-2.17,4.13,4.13,0,0,1,3.75,0A1.14,1.14,0,0,1,294.32,581.64Z"/><path class="cls-43" d="M302,586a4.13,4.13,0,0,1-3.75,0,1.14,1.14,0,0,1,0-2.17,4.13,4.13,0,0,1,3.75,0A1.14,1.14,0,0,1,302,586Z"/><path class="cls-62" d="M309.68,590.4a4.15,4.15,0,0,1-3.76,0,1.15,1.15,0,0,1,0-2.17,4.15,4.15,0,0,1,3.76,0A1.14,1.14,0,0,1,309.68,590.4Z"/><ellipse class="cls-62" cx="270.77" cy="576.59" rx="2.66" ry="1.53"/><ellipse class="cls-43" cx="278.45" cy="580.97" rx="2.66" ry="1.53"/><path class="cls-62" d="M288,586.44a4.13,4.13,0,0,1-3.75,0,1.14,1.14,0,0,1,0-2.17,4.13,4.13,0,0,1,3.75,0A1.14,1.14,0,0,1,288,586.44Z"/><ellipse class="cls-43" cx="293.81" cy="589.73" rx="2.66" ry="1.53"/><path class="cls-62" d="M303.36,595.2a4.13,4.13,0,0,1-3.75,0,1.14,1.14,0,0,1,0-2.17,4.13,4.13,0,0,1,3.75,0A1.14,1.14,0,0,1,303.36,595.2Z"/><line class="cls-63" x1="206.16" y1="552.47" x2="245.07" y2="575.23"/><line class="cls-63" x1="203.31" y1="554.74" x2="242.22" y2="577.5"/><line class="cls-63" x1="200.46" y1="557" x2="239.37" y2="579.76"/><path class="cls-48" d="M186.17,554.77s14.48,15.41,15.42,30.73l-2.82,6-5.83-4.26s-4.14-20.12-11.66-26.14Z"/><path class="cls-49" d="M152.18,735.24s-1,9.53,3.67,9c5.43-.57,22.25-11.9,18.51-15.47s-17.79,2.89-17.79,2.89Z"/><path class="cls-49" d="M182.09,749.34s-1,9.53,3.66,9c5.43-.58,22.26-11.9,18.51-15.47s-17.79,2.89-17.79,2.89Z"/><rect class="cls-12" x="167.84" y="511.74" width="9.98" height="14.1" transform="translate(345.66 1037.58) rotate(180)"/><path class="cls-48" d="M188.46,587.77s16.06,36.66,4,162.49a2,2,0,0,1-1,1.56c-2.12,1.21-7.45,3.37-10.2-3.74a2,2,0,0,1-.14-.59l-10.46-131.8c-.08-2.13-1.19-2.22-1.4-.11l-6.43,120.51a2.26,2.26,0,0,1-1.47,2c-2.82,1-9,2.28-10.13-6.58,0,0-10.91-130.35,1.84-148Z"/><path class="cls-49" d="M153.08,579.47a6.22,6.22,0,0,0,1.06,1.49c3.66,3.74,13.51,10.49,33.14,3.47a3.52,3.52,0,0,0,1.18-.7v4a3.69,3.69,0,0,1-1.18.7c-19.63,7-29.48.27-33.14-3.47a6.48,6.48,0,0,1-1.06-1.5Z"/><path class="cls-52" d="M177.82,521.06l-10-2.27-15.75-2c-3.85-.51-6.63,5.07-6.91,11-.52,11.35,7.1,50,7.1,50a6.56,6.56,0,0,0,1.83,4.16c3.63,3.74,13.49,10.54,33.17,3.5a3.57,3.57,0,0,0,2.35-2.85L197,536.9a6.3,6.3,0,0,0-2.6-6.15Z"/><path class="cls-12" d="M190.25,494s-1.21,13.64-6.85,20.63-16.56-4.55-18.19-7.91-4.26-24.45,12.68-24.45C188.88,482.28,190.81,489.1,190.25,494Z"/><path class="cls-48" d="M173.93,502.5a23,23,0,0,0,7.8-10.89s1.25-.75,8.18,5.07c0,0,7.83,0,4.19-8.27S175.43,469.73,168.2,478c0,0-13.77-2.29-11.1,15.55,3.51,23.5,14.52,19.63,17.27,14.25S173.93,502.5,173.93,502.5Z"/><path class="cls-12" d="M177.48,499.74s-2.28-4.49-4.16-1.81.39,8.09,4.49,8.8Z"/><path class="cls-12" d="M260,580.05a27.91,27.91,0,0,1,2.5,3.65.53.53,0,0,1-.7.74L259,582.86s.19,4.68-6.47.52l-.15-4.53Z"/><path class="cls-51" d="M253.74,578.69s-41.53-23.6-44.27-9.8,42.86,14.86,42.86,14.86S254.26,582.42,253.74,578.69Z"/><path class="cls-51" d="M194.36,530.75s6.23,3.12,14.91,15.48C221,563,226.46,573,215.52,576.71c-2.77.93-21.88-19.12-21.88-19.12S185.86,541,194.36,530.75Z"/><path class="cls-51" d="M179.84,522.25l-2-3.46s-3.42-2.1-10-2.24l-2.39,2S166,521,179.84,522.25Z"/><path class="cls-64" d="M629.25,269.38c8.22,22.31,38.81,50.92,64,40.2,12.43-5.3,19.21-22.72,10.89-33.38-5.91-7.57-16.55-9.44-24.2-15.25-6.83-5.2-10.84-13.17-16-20S651,227.82,642.5,228.77c-17.87,2-17.92,26.67-13.71,39.31C628.93,268.51,629.09,268.94,629.25,269.38Z"/></g></g></svg>